<?xml version="1.0" encoding="UTF-8"?>
<!DOCTYPE svg PUBLIC "-//W3C//DTD SVG 1.1//EN" "http://www.w3.org/Graphics/SVG/1.1/DTD/svg11.dtd">
<!-- Creator: CorelDRAW X7 -->
<svg xmlns="http://www.w3.org/2000/svg" xml:space="preserve" width="68.0013in" height="68.0013in" version="1.1" style="shape-rendering:geometricPrecision; text-rendering:geometricPrecision; image-rendering:optimizeQuality; fill-rule:evenodd; clip-rule:evenodd"
viewBox="0 0 100345 100345"
 xmlns:xlink="http://www.w3.org/1999/xlink">
 <defs>
  <style type="text/css">
   <![CDATA[
    .str0 {stroke:#848688;stroke-width:10.2481}
    .fil0 {fill:none}
    .fil1 {fill:#848688;fill-rule:nonzero}
   ]]>
  </style>
 </defs>
 <g id="Layer_x0020_1">
  <metadata id="CorelCorpID_0Corel-Layer"/>
  <g id="_739910208">
   <rect class="fil0" width="100345" height="100345"/>
   <g>
    <path class="fil1" d="M32811 59681l-2357 0c99,-1938 151,-3951 151,-6034 0,-2418 -52,-4200 -151,-5348l-3141 1571 -649 -1199 4962 -3650 1185 0c-94,2968 -141,5842 -141,8626 0,1966 47,3974 141,6034zm16578 -6777c0,7844 -3329,11960 -9989,12359l-405 -1641c5009,-339 7662,-3241 7967,-8696l-136 0c-922,1317 -2384,1971 -4397,1971 -1628,0 -2902,-560 -3824,-1689 -922,-1124 -1383,-2464 -1383,-4016 0,-1660 527,-3104 1590,-4332 1063,-1227 2549,-1839 4473,-1839 1688,0 3127,664 4317,1990 1190,1326 1787,3292 1787,5893zm-2398 315c0,-2103 -391,-3687 -1171,-4746 -781,-1063 -1708,-1594 -2771,-1594 -1076,0 -1918,381 -2530,1143 -611,767 -917,1679 -917,2742 0,1171 372,2187 1105,3062 734,869 1759,1307 3072,1307 1396,0 2468,-640 3212,-1914zm17923 1364c0,1698 -611,3024 -1839,3969 -1227,945 -2676,1416 -4346,1420 -1636,-4 -3052,-456 -4246,-1368 -1190,-908 -1788,-2178 -1788,-3814 0,-1077 339,-2065 1016,-2968 682,-908 1651,-1627 2911,-2159l0 -150c-1895,-1167 -2840,-2610 -2840,-4327 0,-1378 503,-2446 1514,-3198 1011,-753 2215,-1129 3612,-1129 1359,0 2535,358 3532,1077 997,715 1496,1698 1496,2944 0,856 -264,1674 -800,2455 -531,781 -1270,1364 -2215,1750l0 150c2662,1501 3993,3283 3993,5348zm-2286 371c0,-1726 -1425,-3283 -4270,-4670 -993,339 -1811,894 -2446,1660 -639,767 -959,1599 -959,2502 0,1186 386,2093 1152,2733 767,639 1684,959 2747,959 1020,0 1904,-287 2652,-856 748,-569 1124,-1345 1124,-2328zm-884 -9768c0,-889 -287,-1571 -860,-2046 -574,-475 -1261,-710 -2061,-710 -761,0 -1425,207 -1994,625 -573,419 -856,988 -856,1703 0,1491 1087,2751 3264,3791 1675,-743 2507,-1867 2507,-3363zm11937 14495l-2357 0c99,-1938 151,-3951 151,-6034 0,-2418 -52,-4200 -151,-5348l-3141 1571 -649 -1199 4961 -3650 1186 0c-95,2968 -141,5842 -141,8626 0,1966 46,3974 141,6034z"/>
    <path class="fil1" d="M33024 43334l0 -848c98,86 215,162 350,231 136,69 279,127 428,174 151,47 301,83 452,110 152,24 292,37 419,37 443,0 773,-81 992,-246 218,-164 328,-401 328,-708 0,-166 -36,-310 -110,-433 -73,-122 -174,-235 -301,-336 -128,-102 -280,-199 -456,-292 -177,-92 -365,-190 -568,-293 -214,-108 -414,-219 -600,-330 -185,-111 -346,-234 -483,-368 -138,-134 -245,-287 -324,-456 -78,-170 -118,-368 -118,-597 0,-280 62,-523 184,-730 123,-208 285,-377 484,-512 200,-134 428,-234 684,-299 255,-66 516,-100 781,-100 605,0 1046,73 1324,219l0 810c-363,-251 -829,-377 -1396,-377 -158,0 -314,16 -472,48 -156,34 -297,88 -419,161 -123,75 -223,171 -300,288 -78,117 -116,259 -116,428 0,157 30,293 88,407 58,114 145,217 259,312 114,94 254,186 418,274 163,89 354,185 567,291 221,109 428,223 625,343 198,120 370,253 518,398 149,146 266,307 354,483 87,177 130,381 130,609 0,302 -59,559 -177,768 -118,211 -279,382 -479,512 -202,131 -435,226 -696,285 -263,58 -540,88 -832,88 -96,0 -216,-8 -359,-24 -142,-16 -288,-38 -438,-69 -147,-29 -288,-67 -421,-110 -133,-44 -239,-94 -320,-148zm5213 -5251c-125,0 -233,-42 -321,-128 -89,-85 -133,-193 -133,-324 0,-132 44,-242 133,-328 88,-88 196,-132 321,-132 128,0 238,44 328,132 90,86 135,196 135,328 0,125 -45,232 -135,320 -90,89 -200,132 -328,132zm343 5499l-703 0 0 -4385 703 0 0 4385zm5062 0l-703 0 0 -2501c0,-931 -339,-1395 -1019,-1395 -351,0 -642,131 -871,396 -231,264 -345,598 -345,999l0 2501 -703 0 0 -4385 703 0 0 728 17 0c331,-554 810,-830 1439,-830 479,0 846,155 1100,465 255,308 382,757 382,1342l0 2680zm4312 -201c-336,203 -737,304 -1199,304 -626,0 -1130,-203 -1514,-610 -383,-406 -576,-934 -576,-1583 0,-722 207,-1302 621,-1741 414,-437 966,-656 1658,-656 386,0 725,70 1018,213l0 719c-325,-227 -673,-341 -1045,-341 -447,0 -815,160 -1102,482 -286,320 -431,742 -431,1264 0,515 136,920 405,1216 270,297 632,446 1086,446 383,0 743,-127 1079,-381l0 668zm4585 -1816l-3096 0c12,488 143,865 395,1131 251,265 596,398 1036,398 494,0 947,-162 1362,-488l0 659c-385,281 -896,420 -1529,420 -619,0 -1106,-199 -1460,-597 -355,-399 -532,-959 -532,-1681 0,-682 195,-1238 581,-1667 387,-430 868,-645 1441,-645 574,0 1017,186 1331,557 314,370 471,886 471,1545l0 368zm-719 -595c-3,-405 -101,-720 -293,-947 -192,-225 -460,-337 -804,-337 -330,0 -612,118 -843,355 -231,236 -374,546 -428,929l2368 0z"/>
   </g>
   <rect class="fil0 str0" x="13285" y="27403" width="73775" height="45540"/>
  </g>
 </g>
</svg>
