<?xml version="1.0" encoding="UTF-8"?>
<!DOCTYPE svg PUBLIC "-//W3C//DTD SVG 1.1//EN" "http://www.w3.org/Graphics/SVG/1.1/DTD/svg11.dtd">
<!-- Creator: CorelDRAW X7 -->
<svg xmlns="http://www.w3.org/2000/svg" xml:space="preserve" width="335.155in" height="58.5394in" version="1.1" style="shape-rendering:geometricPrecision; text-rendering:geometricPrecision; image-rendering:optimizeQuality; fill-rule:evenodd; clip-rule:evenodd"
viewBox="0 0 117006 20437"
 xmlns:xlink="http://www.w3.org/1999/xlink">
 <defs>
  <style type="text/css">
   <![CDATA[
    .fil1 {fill:#373435}
    .fil0 {fill:#373435;fill-rule:nonzero}
   ]]>
  </style>
 </defs>
 <g id="Layer_x0020_1">
  <metadata id="CorelCorpID_0Corel-Layer"/>
  <g id="_1133166768">
   <g>
    <path class="fil0" d="M36230 10813l-3596 0 -3435 -10631 3447 0 1625 6546c129,526 200,924 215,1185l74 0c30,-332 109,-742 230,-1231l1580 -6500 3338 0 -3478 10631zm4301 0l0 -10631 3205 0 0 10631 -3205 0zm10216 -8125l0 8125 -3220 0 0 -8125 -2976 0 0 -2506 9203 0 0 2506 -3007 0zm8978 8125l-468 -1959 -3174 0 -504 1959 -3463 0 3663 -10631 3977 0 3447 10631 -3478 0zm-2022 -8322l-74 0c-10,119 -43,314 -103,584 -59,274 -360,1441 -899,3501l2035 0 -742 -2891c-103,-425 -177,-825 -217,-1194zm6138 8322l0 -10631 3204 0 0 8125 3661 0 0 2506 -6865 0z"/>
    <path class="fil0" d="M80684 7551c0,1042 -365,1847 -1096,2414 -732,565 -1777,848 -3137,848l-4849 0 0 -10631 4515 0c2823,0 4233,858 4233,2572 0,372 -89,711 -269,1020 -177,309 -448,580 -812,813 -362,232 -762,389 -1198,473l0 30c504,58 957,208 1360,448 400,241 708,539 926,896 218,360 327,732 327,1117zm-3736 -4243c0,-655 -517,-984 -1550,-984l-592 0 0 2004 927 0c354,0 648,-96 873,-286 228,-189 342,-432 342,-734zm334 4230c0,-306 -112,-559 -334,-757 -223,-197 -517,-296 -881,-296l-1261 0 0 2172 1068 0c433,0 777,-101 1031,-301 250,-200 377,-474 377,-818zm14625 -2073c0,1068 -230,2022 -688,2865 -461,843 -1104,1499 -1929,1964 -825,469 -1749,702 -2774,702 -998,0 -1906,-226 -2724,-679 -818,-453 -1455,-1088 -1911,-1906 -453,-817 -681,-1744 -681,-2777 0,-1083 230,-2055 689,-2921 460,-865 1106,-1533 1936,-2004 830,-474 1774,-709 2832,-709 1018,0 1929,225 2732,678 804,453 1425,1099 1862,1937 438,838 656,1787 656,2850zm-3402 91c0,-873 -167,-1562 -504,-2065 -336,-504 -794,-757 -1377,-757 -637,0 -1134,243 -1488,726 -357,484 -534,1167 -534,2053 0,863 177,1539 529,2022 354,484 833,727 1440,727 372,0 704,-109 1000,-327 296,-217 527,-529 689,-934 164,-405 245,-886 245,-1445zm9237 5257l-1319 -2916c-86,-182 -142,-362 -167,-539 -28,-174 -48,-319 -64,-433l-30 0c-28,119 -63,274 -104,469 -38,192 -96,379 -169,562l-1231 2857 -3812 0 3190 -5300 -2901 -5331 3870 0 1030 2805c94,263 183,607 261,1038l31 0c78,-484 169,-836 273,-1051l1200 -2792 3566 0 -2989 5270 3131 5361 -3766 0z"/>
   </g>
   <polygon class="fil1" points="0,93 12399,93 12399,3286 3215,3286 3215,7486 12399,7486 12399,10705 0,10705 "/>
   <polygon class="fil1" points="25745,93 13346,93 13346,3286 22530,3286 22530,7486 13346,7486 13346,10705 25745,10705 "/>
  </g>
  <path class="fil0" d="M83616 15845c-270,-100 -588,-149 -950,-149l-195 0c-54,220 -87,471 -102,752l-4 169c-3,161 2,365 13,612 141,155 212,270 212,347 0,128 -61,249 -183,367 -122,117 -243,176 -365,176 -201,0 -366,-47 -498,-145 -132,-95 -197,-286 -197,-572 0,-101 9,-275 29,-518l39 -496c13,-249 38,-467 71,-654 -597,0 -1085,48 -1463,140 -436,110 -804,165 -1104,165 -189,0 -394,-126 -611,-376 107,-323 707,-942 1799,-1856l1748 -1442c51,-33 119,-84 204,-152 374,-291 616,-438 726,-438 327,0 493,100 493,302l-229 831c-162,492 -284,1020 -365,1583 -23,145 -47,277 -68,398l780 31c362,0 601,48 719,145 117,95 176,253 176,475 0,92 -40,176 -123,252 -82,75 -176,113 -284,113 -108,0 -197,-21 -268,-60zm-1574 -2640c-87,71 -181,143 -279,217 -406,303 -677,529 -816,678 -184,201 -592,545 -1225,1031 220,-24 556,-71 1009,-139 472,-71 781,-110 926,-119 10,-73 74,-349 190,-824l195 -844zm3912 4710c-466,0 -836,-156 -1109,-471 -273,-314 -410,-714 -410,-1200 0,-555 168,-1163 504,-1825 334,-662 833,-1214 1495,-1657 662,-442 1255,-664 1783,-664 392,0 815,135 1268,404 452,271 755,558 906,861 152,303 227,686 227,1154 0,746 -485,1499 -1453,2260 -969,759 -2039,1138 -3211,1138zm2890 -4735c-76,48 -181,73 -313,73 -35,0 -100,-32 -196,-94 -100,-60 -165,-89 -195,-89 -291,0 -532,51 -720,155 -187,103 -433,300 -737,591 -304,291 -569,630 -797,1014 -226,385 -339,785 -339,1202 0,167 20,323 61,471 42,146 88,242 143,285 54,45 147,90 278,136 131,47 274,71 431,71 308,0 718,-143 1232,-428 513,-287 961,-620 1341,-1003 380,-381 571,-688 571,-921 0,-129 -23,-292 -71,-486 -46,-196 -88,-325 -126,-386 -39,-61 -124,-161 -259,-301 -135,-139 -236,-236 -304,-290zm9933 2134c-45,688 -125,1354 -239,2001 -115,646 -284,1233 -506,1759 -221,526 -460,885 -717,1076 -256,191 -560,285 -914,287 -379,-2 -743,-73 -1090,-218l4 0c-300,-124 -562,-291 -784,-501 -221,-208 -333,-385 -333,-530 0,-133 34,-239 100,-318 67,-79 154,-119 261,-119 94,0 171,40 233,119 362,467 889,701 1579,701 279,0 550,-293 811,-880 259,-585 424,-1287 492,-2108 -874,690 -1548,1035 -2020,1035 -306,0 -548,-122 -726,-365 -178,-243 -268,-536 -268,-878 0,-343 81,-840 241,-1491 159,-652 295,-1056 407,-1214 111,-157 294,-235 546,-235 135,0 240,58 313,175 74,118 111,248 111,389 0,42 -103,282 -305,717 -250,531 -374,990 -374,1374 0,199 27,349 82,453 56,103 113,154 173,154 135,0 300,-41 494,-122 194,-82 421,-224 683,-427 261,-203 431,-356 507,-461 76,-104 136,-239 183,-405 45,-165 79,-529 106,-1092 14,-329 30,-535 49,-620 17,-84 68,-162 150,-233 82,-71 193,-106 331,-106 186,0 318,39 396,119 79,79 118,266 118,560l-94 1404zm4820 1040c0,294 -248,646 -743,1054 -494,409 -1053,614 -1676,614 -478,0 -854,-150 -1128,-452 -275,-301 -412,-721 -412,-1258 0,-793 280,-1536 841,-2228 560,-694 1158,-1040 1794,-1040 317,0 572,100 763,301 193,202 290,441 290,717 0,493 -236,962 -710,1407 -472,446 -1077,753 -1816,924 -84,19 -126,69 -126,152 0,136 59,265 180,388 120,123 281,185 482,185 568,0 1133,-294 1693,-879 107,-113 212,-169 313,-169 171,0 255,94 255,284zm-2848 -751c448,-91 842,-282 1182,-573 342,-291 512,-556 512,-794 0,-92 -27,-171 -79,-234 -52,-64 -118,-96 -201,-96 -246,0 -519,181 -820,543 -300,362 -497,746 -594,1154zm6459 790c-745,980 -1463,1471 -2156,1471 -254,0 -475,-100 -657,-301 -184,-201 -277,-456 -277,-768 0,-750 335,-1548 1003,-2395 666,-847 1339,-1270 2019,-1270 344,0 572,173 679,521 324,0 488,125 488,374 0,119 -32,333 -94,644 -113,583 -170,1049 -170,1396 0,363 25,618 74,764 51,148 86,243 109,289 23,45 91,93 204,144 113,53 170,129 170,224 0,145 -73,265 -219,361 -146,97 -299,145 -456,145 -532,0 -771,-533 -717,-1599zm-255 -2355c-286,0 -658,316 -1114,947 -456,633 -685,1169 -685,1611 0,231 48,347 145,347 333,0 744,-295 1232,-888 488,-593 732,-1111 732,-1555 0,-142 -32,-254 -96,-338 -64,-84 -135,-124 -214,-124zm3493 1671l71 -136c343,-688 711,-1246 1105,-1674 396,-429 781,-643 1158,-643 288,0 524,79 706,239 183,158 274,346 274,563 0,136 -32,254 -94,351 -62,97 -148,146 -259,146 -176,0 -335,-73 -480,-216 -101,-94 -182,-140 -242,-140 -211,0 -566,328 -1064,987 -498,661 -798,1401 -900,2225 -31,238 -99,403 -208,498 -107,94 -252,142 -436,142 -196,0 -335,-111 -417,-333 -81,-222 -122,-585 -122,-1088 0,-207 4,-485 16,-837 12,-330 45,-734 99,-1212 13,-125 23,-223 29,-294 26,-277 55,-466 86,-571 34,-103 109,-200 228,-289 119,-92 250,-137 394,-137 153,0 269,44 349,132 78,87 119,184 119,288 0,134 -64,409 -192,827 -44,145 -84,318 -114,519l-106 653zm5516 1027c-12,-153 -255,-340 -730,-560 -583,-280 -955,-522 -1116,-723 -162,-203 -241,-423 -241,-661 0,-501 279,-938 841,-1313 562,-375 1086,-562 1573,-562 478,0 717,208 717,624 0,110 -55,209 -164,297 -108,87 -201,132 -278,132 -30,0 -87,-21 -165,-60 -80,-40 -140,-59 -182,-59 -252,0 -529,84 -832,253 -302,171 -455,368 -455,596 0,110 54,215 161,320 109,103 328,232 659,388 488,232 811,442 966,627 157,187 235,394 235,620 0,413 -280,757 -839,1034 -559,275 -1186,413 -1881,413 -513,0 -769,-185 -769,-556 0,-135 53,-251 162,-348 107,-95 227,-143 361,-143 53,0 136,19 250,59 113,42 217,62 313,62 267,0 545,-42 837,-126 291,-85 484,-189 577,-314z"/>
 </g>
</svg>
