<?xml version="1.0" encoding="UTF-8"?>
<!DOCTYPE svg PUBLIC "-//W3C//DTD SVG 1.1//EN" "http://www.w3.org/Graphics/SVG/1.1/DTD/svg11.dtd">
<!-- Creator: CorelDRAW X7 -->
<svg xmlns="http://www.w3.org/2000/svg" xml:space="preserve" width="68.0013in" height="68.0013in" version="1.1" style="shape-rendering:geometricPrecision; text-rendering:geometricPrecision; image-rendering:optimizeQuality; fill-rule:evenodd; clip-rule:evenodd"
viewBox="0 0 11669 11669"
 xmlns:xlink="http://www.w3.org/1999/xlink"
 xmlns:dc="http://purl.org/dc/elements/1.1/"
 xmlns:cc="http://creativecommons.org/ns#"
 xmlns:rdf="http://www.w3.org/1999/02/22-rdf-syntax-ns#"
 xmlns:svg="http://www.w3.org/2000/svg"
 xmlns:sodipodi="http://sodipodi.sourceforge.net/DTD/sodipodi-0.dtd"
 xmlns:inkscape="http://www.inkscape.org/namespaces/inkscape"
 sodipodi:version="0.32"
 inkscape:version="0.46"
 sodipodi:docname="EU stars.svg"
 inkscape:output_extension="org.inkscape.output.svg.inkscape">
 <defs>
  <style type="text/css">
   <![CDATA[
    .fil2 {fill:none}
    .fil1 {fill:#848688}
    .fil0 {fill:#848688;fill-rule:nonzero}
   ]]>
  </style>
 </defs>
 <g id="Layer_x0020_1">
  <metadata id="CorelCorpID_0Corel-Layer"/>
  <g id="_1289209264">
   <path class="fil0" d="M4588 5686l0 -500c0,-12 2,-47 5,-104l-2 0c-10,27 -18,48 -25,62l-251 542 -16 0 -251 -539c-8,-17 -16,-40 -23,-66l-3 0c2,31 4,62 4,93l0 512 -49 0 0 -704 45 0 263 567c2,3 4,8 5,14 2,5 5,11 7,16 3,9 7,18 10,29l3 0 6 -16c0,-1 6,-17 16,-47l259 -563 43 0 0 704 -46 0zm686 0l-80 -219 -306 0 -81 219 -53 0 266 -704 46 0 263 704 -55 0zm-216 -589c-4,-10 -7,-20 -9,-29 -2,-8 -5,-17 -7,-25l-2 0c-6,22 -11,39 -16,53l-119 327 272 0 -119 -326zm390 589l0 -704 176 0c117,0 206,29 267,87 61,58 92,144 92,255 0,108 -33,195 -98,262 -66,67 -156,100 -271,100l-166 0zm49 -660l0 616 110 0c105,0 185,-27 241,-81 56,-54 84,-133 84,-235 0,-200 -105,-300 -315,-300l-120 0zm629 660l0 -704 329 0 0 44 -280 0 0 283 260 0 0 44 -260 0 0 289 297 0 0 44 -346 0zm779 0l0 -704 49 0 0 704 -49 0zm728 0l-420 -569c-8,-12 -16,-23 -23,-35l-6 -9 -2 0c1,8 1,18 1,31l0 582 -49 0 0 -704 38 0 416 564c10,13 20,28 30,46l3 0c-2,-23 -3,-43 -3,-59l0 -551 49 0 0 704 -34 0z"/>
   <path class="fil0" d="M3977 6673l0 -776 363 0 0 50 -309 0 0 311 286 0 0 49 -286 0 0 318 327 0 0 48 -381 0zm1083 -310c0,216 -92,324 -276,324 -175,0 -263,-104 -263,-312l0 -478 53 0 0 471c0,180 74,270 220,270 142,0 213,-88 213,-263l0 -478 53 0 0 466zm587 310l-104 -227c-21,-47 -42,-78 -64,-94 -21,-16 -48,-24 -80,-24l-96 0 0 345 -54 0 0 -776 216 0c68,0 122,19 161,56 39,37 59,86 59,146 0,56 -16,103 -48,140 -32,38 -77,62 -135,73l0 2c31,12 61,50 90,112l115 247 -60 0zm-344 -726l0 332 134 0c59,0 106,-16 141,-47 34,-31 52,-73 52,-127 0,-50 -16,-88 -47,-116 -32,-28 -77,-42 -135,-42l-145 0zm881 740c-110,0 -197,-36 -262,-109 -65,-73 -98,-168 -98,-285 0,-123 33,-222 100,-297 67,-74 159,-112 275,-112 104,0 189,36 254,108 64,72 97,165 97,282 0,128 -34,229 -100,303 -66,73 -155,110 -266,110zm5 -754c-90,0 -164,33 -222,98 -59,65 -88,151 -88,257 0,106 28,191 83,255 55,63 129,95 221,95 96,0 172,-32 228,-94 56,-63 84,-150 84,-262 0,-110 -28,-195 -83,-257 -54,-61 -128,-92 -223,-92zm573 429l0 311 -54 0 0 -776 188 0c79,0 140,19 182,56 42,37 64,91 64,162 0,72 -24,131 -71,178 -47,46 -113,69 -198,69l-111 0zm0 -415l0 366 110 0c70,0 123,-17 160,-50 36,-33 55,-81 55,-142 0,-116 -67,-174 -201,-174l-124 0zm549 726l0 -776 363 0 0 50 -309 0 0 311 287 0 0 49 -287 0 0 318 327 0 0 48 -381 0z"/>
  </g>
  <g id="_1289209456">
   <sodipodi:namedview id="base" pagecolor="#ffffff" bordercolor="#666666" borderopacity="1.0" gridtolerance="10000" guidetolerance="10" objecttolerance="10" inkscape:pageopacity="0.0" inkscape:pageshadow="2" inkscape:zoom="1" inkscape:cx="375" inkscape:cy="170.84489" inkscape:document-units="px" inkscape:current-layer="layer1" showgrid="false" inkscape:window-width="1280" inkscape:window-height="750" inkscape:window-x="-8" inkscape:window-y="-8"/>
   <g id="layer1" inkscape:label="Layer 1" inkscape:groupmode="layer">
    <path id="path3397" class="fil1" d="M5834 1582l-138 425 -448 0 362 263 -138 427 362 -263 362 263 -138 -427 361 -263 -447 0 -138 -425zm-1847 495l-138 427 -448 0 362 262 -138 426 361 -263 362 263 -138 -426 362 -262 -447 0 -138 -427zm3694 0l-138 427 -448 0 362 262 -138 426 362 -263 363 263 -139 -426 363 -262 -448 0 -139 -427zm-5047 1353l-139 426 -446 0 361 263 -139 425 363 -263 362 263 -138 -425 362 -263 -448 0 -138 -426zm6400 0l-139 426 -446 0 361 261 -139 427 363 -263 362 263 -138 -425 362 -263 -448 0 -138 -426zm-6895 1848l-139 425 -446 0 361 263 -139 425 364 -263 361 263 -138 -425 362 -263 -448 0 -138 -425zm7390 0l-139 425 -446 0 361 263 -139 425 363 -263 362 263 -138 -424 362 -264 -448 0 -138 -425zm-6895 1847l-139 425 -446 0 361 263 -139 427 363 -263 362 263 -138 -427 362 -263 -448 0 -138 -425zm6400 0l-139 425 -446 0 361 263 -139 427 363 -263 362 263 -138 -427 362 -263 -448 0 -138 -425zm-5047 1352l-138 427 -448 0 362 262 -138 426 362 -263 361 263 -138 -426 362 -262 -447 0 -138 -427zm3694 0l-138 427 -448 0 362 261 -138 427 362 -263 363 263 -139 -427 363 -261 -448 0 -139 -427zm-1847 495l-138 427 -448 0 362 261 -138 427 362 -263 362 263 -138 -427 361 -261 -447 0 -138 -427z"/>
   </g>
  </g>
  <rect class="fil2" width="11669" height="11669"/>
 </g>
</svg>
