<?xml version="1.0" encoding="UTF-8"?>
<!DOCTYPE svg PUBLIC "-//W3C//DTD SVG 1.1//EN" "http://www.w3.org/Graphics/SVG/1.1/DTD/svg11.dtd">
<!-- Creator: CorelDRAW X7 -->
<svg xmlns="http://www.w3.org/2000/svg" xml:space="preserve" width="469.945in" height="154.986in" version="1.1" style="shape-rendering:geometricPrecision; text-rendering:geometricPrecision; image-rendering:optimizeQuality; fill-rule:evenodd; clip-rule:evenodd"
viewBox="0 0 182068 60046"
 xmlns:xlink="http://www.w3.org/1999/xlink"
 xmlns:dc="http://purl.org/dc/elements/1.1/"
 xmlns:cc="http://creativecommons.org/ns#"
 xmlns:rdf="http://www.w3.org/1999/02/22-rdf-syntax-ns#"
 xmlns:svg="http://www.w3.org/2000/svg"
 xmlns:sodipodi="http://sodipodi.sourceforge.net/DTD/sodipodi-0.dtd"
 xmlns:inkscape="http://www.inkscape.org/namespaces/inkscape"
 sodipodi:version="0.32"
 inkscape:version="0.46"
 sodipodi:docname="EU stars.svg"
 inkscape:output_extension="org.inkscape.output.svg.inkscape">
 <defs>
  <style type="text/css">
   <![CDATA[
    .fil1 {fill:#373435}
    .fil0 {fill:#373435;fill-rule:nonzero}
   ]]>
  </style>
 </defs>
 <g id="Layer_x0020_1">
  <metadata id="CorelCorpID_0Corel-Layer"/>
  <path class="fil0" d="M3416 36656c-1008,0 -1829,-327 -2464,-982 -635,-660 -952,-1516 -952,-2567 0,-1109 322,-2009 967,-2699 641,-687 1496,-1032 2562,-1032 1005,0 1816,330 2434,987 622,655 933,1523 933,2602 0,1102 -321,1994 -966,2676 -24,21 -44,45 -64,65 -20,22 -42,42 -64,62l1781 1712 -2218 0 -933 -946c-307,82 -645,122 -1016,122zm69 -5914c-553,0 -995,209 -1325,628 -327,415 -491,967 -491,1654 0,697 164,1248 491,1655 326,405 755,608 1285,608 548,0 980,-196 1302,-590 320,-398 481,-946 481,-1643 0,-727 -156,-1295 -466,-1704 -309,-406 -734,-608 -1277,-608zm10318 2744c0,2113 -986,3170 -2954,3170 -1912,0 -2867,-1032 -2867,-3096l0 -4065 1590 0 0 4083c0,1139 446,1709 1335,1709 873,0 1311,-549 1311,-1650l0 -4142 1585 0 0 3991zm7501 3048l-1728 0 -501 -1567 -2503 0 -496 1567 -1719 0 2564 -7039 1880 0 2503 7039zm-2592 -2783l-756 -2366c-55,-178 -95,-389 -119,-633l-38 0c-17,206 -57,410 -123,613l-765 2386 1801 0zm7662 2783l-4192 0 0 -7039 1586 0 0 5752 2606 0 0 1287zm2533 0l-1586 0 0 -7039 1586 0 0 7039zm6543 -5749l-2009 0 0 5749 -1590 0 0 -5749 -1997 0 0 -1290 5596 0 0 1290zm6454 -1290l-2292 4536 0 2503 -1585 0 0 -2475 -2234 -4564 1812 0 1134 2625c20,49 74,242 161,575l20 0c43,-236 94,-420 152,-554l1155 -2646 1677 0zm10024 7151c-172,0 -338,-22 -492,-69 -156,-45 -303,-107 -442,-186 -140,-78 -272,-171 -396,-278 -124,-105 -241,-219 -353,-340 -121,97 -267,199 -438,305 -169,104 -362,198 -576,281 -215,84 -451,153 -709,207 -258,53 -534,80 -829,80 -384,0 -737,-45 -1064,-137 -325,-91 -605,-228 -841,-409 -236,-183 -421,-407 -553,-675 -133,-269 -198,-580 -198,-934 0,-278 50,-526 149,-744 101,-217 230,-407 391,-571 160,-164 341,-305 544,-422 203,-117 409,-216 618,-295 -100,-79 -202,-169 -306,-272 -102,-103 -195,-216 -277,-338 -82,-124 -149,-256 -199,-400 -50,-144 -75,-297 -75,-458 0,-258 52,-487 155,-687 106,-199 252,-368 441,-506 188,-137 412,-241 674,-313 263,-72 551,-109 864,-109 302,0 577,39 828,114 249,75 466,179 645,313 179,134 318,297 417,484 99,188 148,396 148,622 0,362 -109,677 -327,945 -218,266 -525,483 -920,650 157,72 307,153 451,245 144,92 285,196 422,315 137,117 271,251 402,399 132,149 261,320 389,514 268,-339 461,-697 576,-1077 116,-382 174,-780 174,-1192 0,-124 -6,-243 -21,-358 -15,-114 -39,-221 -72,-319l1322 0c35,104 61,206 77,304 16,99 25,214 25,348 0,319 -34,627 -101,928 -67,302 -161,590 -281,865 -123,275 -268,534 -441,781 -171,244 -360,474 -566,687 161,166 325,295 496,385 169,89 330,134 481,134 157,0 316,-17 480,-50 165,-35 307,-84 428,-146l0 1168c-180,72 -357,126 -533,161 -174,33 -370,50 -587,50zm-4156 -1173c192,0 373,-18 544,-57 169,-37 330,-87 481,-149 151,-62 290,-134 419,-216 130,-82 248,-166 357,-255 -168,-261 -332,-484 -496,-665 -164,-181 -325,-337 -486,-466 -161,-130 -320,-239 -479,-326 -160,-89 -319,-170 -478,-242 -136,66 -263,139 -385,220 -124,79 -233,172 -327,280 -95,105 -171,226 -228,361 -58,136 -87,294 -87,470 0,157 29,300 84,427 55,127 136,238 238,328 104,92 226,163 368,215 143,50 300,75 475,75zm908 -4457c0,-95 -19,-179 -56,-254 -35,-76 -83,-139 -147,-190 -62,-50 -132,-90 -211,-117 -77,-28 -161,-42 -250,-42 -107,0 -206,15 -296,49 -91,32 -170,77 -237,132 -67,55 -119,122 -154,199 -37,78 -53,160 -53,248 0,183 57,352 170,505 116,154 259,278 428,373 109,-38 211,-85 306,-137 98,-52 183,-114 257,-186 73,-72 132,-156 176,-251 43,-94 67,-205 67,-329zm7784 5248l0 -1572c285,240 595,419 928,538 334,119 670,179 1011,179 201,0 375,-18 522,-53 149,-37 273,-86 374,-151 100,-64 174,-139 223,-224 50,-88 73,-181 73,-284 0,-137 -38,-259 -117,-367 -79,-108 -186,-209 -322,-299 -135,-93 -296,-181 -484,-265 -186,-86 -387,-173 -603,-262 -549,-227 -960,-507 -1230,-839 -269,-330 -404,-729 -404,-1196 0,-367 73,-682 220,-945 147,-265 348,-481 601,-652 255,-169 548,-295 882,-375 333,-81 687,-121 1060,-121 367,0 692,23 976,67 281,44 542,112 782,204l0 1468c-119,-82 -246,-154 -385,-216 -139,-62 -284,-114 -431,-156 -146,-40 -293,-70 -439,-90 -146,-19 -283,-29 -414,-29 -181,0 -343,17 -491,51 -147,35 -271,83 -373,145 -101,62 -180,136 -237,223 -55,87 -82,184 -82,292 0,119 30,224 92,316 62,94 151,183 267,267 114,82 253,164 417,244 163,81 349,163 555,248 281,118 532,243 757,376 224,132 417,283 576,449 161,167 283,358 369,573 85,212 127,462 127,747 0,394 -73,722 -223,990 -149,267 -350,483 -606,647 -255,166 -551,285 -890,357 -340,72 -697,107 -1074,107 -385,0 -752,-32 -1101,-97 -348,-65 -651,-164 -906,-295zm10902 -5479l-2009 0 0 5749 -1590 0 0 -5749 -1997 0 0 -1290 5596 0 0 1290zm6436 5749l-1727 0 -501 -1567 -2504 0 -496 1567 -1719 0 2564 -7039 1880 0 2503 7039zm-2592 -2783l-756 -2366c-55,-178 -95,-389 -119,-633l-38 0c-17,206 -57,410 -123,613l-765 2386 1801 0zm9803 2783l-1600 0 -2902 -4424c-169,-258 -288,-452 -353,-583l-19 0c25,248 39,629 39,1138l0 3869 -1498 0 0 -7039 1709 0 2793 4284c127,195 245,386 353,575l21 0c-27,-163 -41,-486 -41,-967l0 -3892 1498 0 0 7039zm1609 0l0 -7039 2495 0c2499,0 3749,1143 3749,3431 0,1096 -342,1971 -1023,2626 -682,655 -1591,982 -2726,982l-2495 0zm1586 -5749l0 4462 786 0c687,0 1225,-206 1617,-618 390,-412 586,-974 586,-1684 0,-670 -194,-1198 -581,-1582 -389,-385 -932,-578 -1632,-578l-776 0zm11865 5749l-1728 0 -501 -1567 -2503 0 -496 1567 -1719 0 2563 -7039 1880 0 2504 7039zm-2592 -2783l-756 -2366c-55,-178 -96,-389 -119,-633l-39 0c-16,206 -57,410 -122,613l-766 2386 1802 0zm9376 2783l-1822 0 -1094 -1811c-82,-138 -161,-260 -236,-369 -75,-107 -151,-199 -228,-277 -77,-77 -157,-135 -241,-177 -84,-40 -174,-60 -272,-60l-427 0 0 2694 -1587 0 0 -7039 2514 0c1709,0 2563,638 2563,1913 0,247 -38,473 -114,681 -75,207 -181,395 -318,563 -137,165 -303,310 -498,430 -196,123 -412,216 -651,285l0 20c105,34 206,86 304,159 99,74 193,159 285,258 92,99 180,205 263,317 84,112 160,223 228,332l1331 2081zm-4320 -5851l0 1959 687 0c340,0 613,-99 819,-295 210,-200 315,-448 315,-741 0,-616 -368,-923 -1105,-923l-716 0zm4976 5851l0 -7039 2495 0c2500,0 3750,1143 3750,3431 0,1096 -342,1971 -1024,2626 -682,655 -1590,982 -2726,982l-2495 0zm1587 -5749l0 4462 786 0c687,0 1225,-206 1617,-618 390,-412 586,-974 586,-1684 0,-670 -194,-1198 -581,-1582 -389,-385 -932,-578 -1632,-578l-776 0z"/>
  <path class="fil0" d="M1924 27593l-1108 0 0 -4918 1108 0 0 4918zm891 -189l0 -1098c199,168 416,293 649,376 232,83 468,125 705,125 141,0 263,-12 366,-37 104,-26 190,-60 261,-105 70,-45 121,-98 155,-157 35,-61 52,-127 52,-198 0,-96 -27,-182 -82,-256 -55,-77 -130,-147 -225,-210 -95,-64 -207,-126 -338,-185 -130,-60 -271,-121 -422,-183 -383,-159 -670,-354 -859,-586 -188,-231 -282,-509 -282,-836 0,-256 50,-476 153,-660 103,-185 244,-336 421,-455 178,-119 383,-206 615,-263 233,-56 480,-84 741,-84 257,0 484,16 682,47 196,30 379,78 546,143l0 1025c-83,-57 -172,-108 -269,-151 -97,-43 -198,-79 -301,-109 -102,-28 -205,-49 -306,-63 -102,-13 -198,-20 -290,-20 -126,0 -239,12 -342,35 -104,25 -190,59 -262,102 -70,43 -125,95 -165,156 -38,61 -57,129 -57,204 0,83 21,156 64,221 44,65 106,127 187,186 79,57 176,115 291,171 114,56 244,113 388,173 196,82 372,170 529,262 156,93 291,198 402,314 113,117 198,250 258,400 60,149 89,323 89,522 0,276 -52,505 -156,692 -104,186 -245,337 -424,452 -178,116 -385,199 -621,249 -238,51 -487,75 -751,75 -269,0 -525,-22 -769,-68 -243,-45 -455,-114 -633,-206zm6242 274c-705,0 -1279,-229 -1722,-687 -444,-459 -665,-1056 -665,-1792 0,-777 225,-1406 675,-1886 451,-480 1047,-721 1790,-721 702,0 1270,231 1703,690 433,460 650,1066 650,1818 0,772 -225,1396 -674,1869 -449,473 -1035,709 -1757,709zm48 -4132c-389,0 -698,145 -926,438 -229,291 -343,677 -343,1156 0,487 114,873 343,1157 228,283 528,425 898,425 382,0 684,-138 909,-413 224,-277 336,-658 336,-1147 0,-511 -109,-908 -325,-1191 -218,-283 -515,-425 -892,-425zm8303 1351c0,437 -48,828 -144,1172 -96,344 -237,634 -420,872 -185,238 -409,420 -675,548 -265,126 -565,189 -902,189 -402,0 -748,-63 -1039,-192l0 -892c258,170 569,254 933,254 373,0 664,-126 875,-380 209,-254 316,-620 318,-1100l-20 -7c-217,321 -548,483 -991,483 -202,0 -388,-37 -557,-114 -171,-74 -319,-180 -443,-313 -125,-134 -222,-293 -291,-479 -71,-185 -105,-389 -105,-610 0,-259 43,-494 127,-707 84,-212 202,-394 355,-548 152,-153 334,-271 546,-356 213,-83 449,-125 707,-125 267,0 508,53 720,157 213,104 395,254 545,451 149,196 263,437 342,723 79,286 119,611 119,974zm-1095 -576c0,-125 -16,-243 -48,-355 -31,-111 -76,-206 -133,-286 -58,-80 -128,-143 -210,-190 -82,-47 -172,-70 -270,-70 -94,0 -180,20 -260,61 -78,41 -146,98 -204,169 -57,73 -102,160 -133,259 -33,101 -48,210 -48,327 0,127 15,241 48,340 31,100 77,184 136,253 57,68 127,121 210,156 82,35 174,52 274,52 96,0 183,-18 261,-56 78,-37 144,-89 200,-152 57,-64 100,-140 130,-227 32,-87 47,-180 47,-281zm3398 3357c-1170,0 -1755,-821 -1755,-2465 0,-853 158,-1503 475,-1950 316,-447 776,-671 1376,-671 1144,0 1715,836 1715,2508 0,832 -155,1470 -468,1913 -311,444 -760,665 -1343,665zm48 -4258c-468,0 -702,587 -702,1765 0,1110 230,1663 688,1663 449,0 674,-571 674,-1715 0,-1142 -221,-1713 -660,-1713zm3992 4258c-1170,0 -1756,-821 -1756,-2465 0,-853 158,-1503 476,-1950 316,-447 776,-671 1376,-671 1144,0 1715,836 1715,2508 0,832 -156,1470 -468,1913 -311,444 -760,665 -1343,665zm48 -4258c-468,0 -702,587 -702,1765 0,1110 229,1663 688,1663 448,0 673,-571 673,-1715 0,-1142 -220,-1713 -659,-1713zm4854 -855l0 5028 -1081 0 0 -3807c-60,53 -130,102 -212,149 -81,47 -167,90 -259,127 -91,38 -186,69 -284,96 -98,26 -195,45 -291,57l0 -912c280,-82 546,-188 796,-316 249,-128 474,-268 675,-422l656 0zm5490 3533l-1877 0 0 -759 1877 0 0 759zm4080 1495l-1108 0 0 -4918 1108 0 0 4918zm891 -189l0 -1098c199,168 416,293 649,376 233,83 468,125 706,125 140,0 262,-12 365,-37 104,-26 191,-60 261,-105 70,-45 122,-98 156,-157 35,-61 51,-127 51,-198 0,-96 -27,-182 -82,-256 -55,-77 -130,-147 -225,-210 -95,-64 -207,-126 -338,-185 -130,-60 -270,-121 -421,-183 -384,-159 -671,-354 -860,-586 -188,-231 -282,-509 -282,-836 0,-256 51,-476 154,-660 103,-185 243,-336 420,-455 178,-119 383,-206 616,-263 233,-56 480,-84 741,-84 256,0 483,16 681,47 197,30 379,78 547,143l0 1025c-84,-57 -173,-108 -270,-151 -97,-43 -198,-79 -301,-109 -101,-28 -204,-49 -306,-63 -102,-13 -198,-20 -289,-20 -127,0 -240,12 -343,35 -103,25 -190,59 -261,102 -71,43 -126,95 -165,156 -39,61 -58,129 -58,204 0,83 21,156 65,221 43,65 105,127 186,186 79,57 176,115 291,171 114,56 244,113 388,173 196,82 372,170 529,262 157,93 291,198 402,314 113,117 198,250 258,400 60,149 89,323 89,522 0,276 -52,505 -156,692 -104,186 -244,337 -424,452 -177,116 -385,199 -621,249 -238,51 -487,75 -750,75 -270,0 -526,-22 -770,-68 -243,-45 -455,-114 -633,-206zm6242 274c-705,0 -1278,-229 -1722,-687 -444,-459 -665,-1056 -665,-1792 0,-777 225,-1406 675,-1886 451,-480 1047,-721 1790,-721 703,0 1270,231 1703,690 434,460 650,1066 650,1818 0,772 -225,1396 -674,1869 -448,473 -1035,709 -1757,709zm48 -4132c-389,0 -698,145 -926,438 -228,291 -343,677 -343,1156 0,487 115,873 343,1157 228,283 528,425 898,425 382,0 685,-138 909,-413 224,-277 336,-658 336,-1147 0,-511 -109,-908 -325,-1191 -218,-283 -515,-425 -892,-425zm7428 -981l0 5028 -1080 0 0 -3807c-60,53 -130,102 -212,149 -81,47 -167,90 -259,127 -91,38 -186,69 -284,96 -98,26 -196,45 -292,57l0 -912c281,-82 547,-188 796,-316 250,-128 475,-268 676,-422l655 0zm4451 110l0 3100 590 0 0 810 -590 0 0 1008 -988 0 0 -1008 -2143 0 0 -848c189,-213 386,-444 590,-697 203,-253 400,-513 590,-781 189,-267 366,-536 530,-808 163,-270 302,-529 417,-776l1004 0zm-2161 3100l1173 0 0 -1718c-80,148 -166,299 -260,451 -93,153 -192,302 -295,450 -103,147 -207,290 -312,428 -106,138 -208,268 -306,389zm4928 1903c-1170,0 -1756,-821 -1756,-2465 0,-853 158,-1503 476,-1950 316,-447 776,-671 1376,-671 1144,0 1715,836 1715,2508 0,832 -155,1470 -468,1913 -311,444 -760,665 -1343,665zm48 -4258c-468,0 -702,587 -702,1765 0,1110 229,1663 688,1663 449,0 673,-571 673,-1715 0,-1142 -220,-1713 -659,-1713zm3992 4258c-1171,0 -1756,-821 -1756,-2465 0,-853 158,-1503 475,-1950 317,-447 777,-671 1377,-671 1144,0 1715,836 1715,2508 0,832 -156,1470 -468,1913 -312,444 -760,665 -1343,665zm48 -4258c-468,0 -702,587 -702,1765 0,1110 229,1663 688,1663 448,0 673,-571 673,-1715 0,-1142 -220,-1713 -659,-1713zm4853 -855l0 5028 -1080 0 0 -3807c-60,53 -130,102 -212,149 -81,47 -167,90 -259,127 -91,38 -186,69 -284,96 -98,26 -196,45 -292,57l0 -912c281,-82 547,-188 796,-316 250,-128 475,-268 676,-422l655 0zm5490 3533l-1876 0 0 -759 1876 0 0 759zm4081 1495l-1108 0 0 -4918 1108 0 0 4918zm891 -189l0 -1098c199,168 416,293 649,376 232,83 468,125 705,125 141,0 263,-12 366,-37 104,-26 190,-60 261,-105 70,-45 121,-98 155,-157 35,-61 52,-127 52,-198 0,-96 -27,-182 -82,-256 -55,-77 -130,-147 -225,-210 -95,-64 -207,-126 -338,-185 -130,-60 -271,-121 -422,-183 -383,-159 -670,-354 -859,-586 -188,-231 -282,-509 -282,-836 0,-256 50,-476 153,-660 103,-185 244,-336 421,-455 178,-119 383,-206 615,-263 233,-56 480,-84 741,-84 257,0 484,16 682,47 196,30 379,78 546,143l0 1025c-83,-57 -172,-108 -269,-151 -97,-43 -198,-79 -301,-109 -102,-28 -205,-49 -306,-63 -102,-13 -198,-20 -290,-20 -126,0 -239,12 -342,35 -104,25 -190,59 -262,102 -70,43 -125,95 -165,156 -38,61 -57,129 -57,204 0,83 21,156 64,221 44,65 106,127 187,186 79,57 176,115 291,171 114,56 244,113 388,173 196,82 372,170 529,262 156,93 291,198 402,314 113,117 198,250 258,400 60,149 89,323 89,522 0,276 -52,505 -156,692 -104,186 -245,337 -424,452 -178,116 -385,199 -621,249 -238,51 -487,75 -751,75 -269,0 -525,-22 -769,-68 -243,-45 -455,-114 -633,-206zm6242 274c-705,0 -1279,-229 -1722,-687 -444,-459 -665,-1056 -665,-1792 0,-777 225,-1406 675,-1886 451,-480 1047,-721 1790,-721 702,0 1270,231 1703,690 433,460 650,1066 650,1818 0,772 -225,1396 -674,1869 -449,473 -1035,709 -1757,709zm48 -4132c-389,0 -698,145 -926,438 -229,291 -343,677 -343,1156 0,487 114,873 343,1157 228,283 528,425 898,425 382,0 684,-138 909,-413 224,-277 336,-658 336,-1147 0,-511 -109,-908 -325,-1191 -218,-283 -515,-425 -892,-425zm7839 -871l0 3100 590 0 0 810 -590 0 0 1008 -988 0 0 -1008 -2143 0 0 -848c189,-213 386,-444 590,-697 203,-253 400,-513 590,-781 189,-267 366,-536 530,-808 163,-270 302,-529 417,-776l1004 0zm-2161 3100l1173 0 0 -1718c-79,148 -166,299 -260,451 -93,153 -192,302 -295,450 -103,147 -207,290 -312,428 -106,138 -207,268 -306,389zm3423 1691l0 -925c336,204 694,307 1074,307 285,0 509,-67 670,-203 161,-136 241,-321 241,-554 0,-487 -344,-730 -1032,-730 -253,0 -546,18 -878,58l186 -2744 2602 0 0 885 -1775 0 -70 985c177,-14 328,-21 457,-21 505,0 900,132 1186,398 287,264 429,621 429,1070 0,496 -170,901 -511,1215 -341,314 -802,471 -1385,471 -474,0 -872,-70 -1194,-212zm5545 212c-1170,0 -1756,-821 -1756,-2465 0,-853 158,-1503 476,-1950 316,-447 776,-671 1376,-671 1144,0 1715,836 1715,2508 0,832 -156,1470 -468,1913 -311,444 -760,665 -1343,665zm48 -4258c-468,0 -702,587 -702,1765 0,1110 229,1663 688,1663 448,0 673,-571 673,-1715 0,-1142 -220,-1713 -659,-1713zm3992 4258c-1171,0 -1756,-821 -1756,-2465 0,-853 158,-1503 475,-1950 316,-447 776,-671 1377,-671 1144,0 1715,836 1715,2508 0,832 -156,1470 -468,1913 -312,444 -760,665 -1343,665zm48 -4258c-468,0 -702,587 -702,1765 0,1110 229,1663 688,1663 448,0 673,-571 673,-1715 0,-1142 -220,-1713 -659,-1713zm4853 -855l0 5028 -1080 0 0 -3807c-60,53 -130,102 -212,149 -81,47 -167,90 -259,127 -91,38 -186,69 -284,96 -99,26 -196,45 -292,57l0 -912c281,-82 547,-188 796,-316 250,-128 474,-268 676,-422l655 0z"/>
  <g id="_1025464944">
   <path class="fil0" d="M143047 28978l0 -3531c0,-87 11,-331 37,-733l-14 0c-71,188 -131,332 -180,434l-1769 3830 -111 0 -1776 -3810c-58,-122 -113,-278 -164,-467l-16 0c15,221 23,443 23,662l0 3615 -343 0 0 -4975 320 0 1855 4007c12,23 25,55 38,94 14,39 30,78 45,117 24,61 47,128 73,201l21 0 39 -111c2,-8 41,-118 117,-329l1828 -3979 306 0 0 4975 -329 0zm4845 0l-568 -1548 -2158 0 -569 1548 -378 0 1877 -4975 325 0 1857 4975 -386 0zm-1526 -4164c-25,-68 -47,-137 -62,-204 -16,-57 -34,-115 -52,-173l-14 0c-39,152 -77,276 -115,370l-836 2308 1918 0 -839 -2301zm2754 4164l0 -4975 1246 0c825,0 1453,206 1884,617 430,412 645,1013 645,1801 0,758 -231,1374 -693,1848 -461,472 -1097,709 -1910,709l-1172 0zm343 -4660l0 4347 781 0c737,0 1305,-190 1700,-574 396,-383 593,-934 593,-1656 0,-1411 -741,-2117 -2223,-2117l-851 0zm4445 4660l0 -4975 2324 0 0 315 -1981 0 0 1996 1839 0 0 312 -1839 0 0 2039 2096 0 0 313 -2439 0zm5499 0l0 -4975 343 0 0 4975 -343 0zm5138 0l-2963 -4022c-60,-80 -114,-161 -160,-242l-45 -69 -14 0c5,60 7,133 7,218l0 4115 -343 0 0 -4975 264 0 2941 3986c65,88 135,194 212,320l18 0c-12,-162 -18,-301 -18,-417l0 -3889 343 0 0 4975 -242 0z"/>
   <path class="fil0" d="M138734 35947l0 -5479 2560 0 0 347 -2182 0 0 2198 2025 0 0 344 -2025 0 0 2246 2308 0 0 344 -2686 0zm7645 -2190c0,1524 -650,2285 -1949,2285 -1235,0 -1853,-733 -1853,-2200l0 -3374 374 0 0 3321c0,1270 518,1906 1552,1906 1002,0 1501,-618 1501,-1853l0 -3374 375 0 0 3289zm4143 2190l-730 -1604c-150,-331 -302,-554 -452,-668 -150,-113 -339,-169 -564,-169l-681 0 0 2441 -378 0 0 -5479 1520 0c484,0 865,131 1141,392 276,261 414,605 414,1034 0,394 -112,724 -339,988 -227,265 -544,436 -952,513l0 16c216,86 427,349 635,790l814 1746 -428 0zm-2427 -5132l0 2347 944 0c417,0 749,-110 995,-329 245,-219 369,-519 369,-901 0,-350 -111,-622 -332,-821 -222,-197 -539,-296 -952,-296l-1024 0zm6221 5227c-775,0 -1392,-257 -1852,-772 -459,-514 -690,-1183 -690,-2005 0,-874 236,-1573 709,-2100 472,-526 1118,-789 1936,-789 738,0 1336,253 1793,759 458,506 686,1168 686,1989 0,906 -235,1619 -703,2140 -468,519 -1096,778 -1879,778zm37 -5322c-636,0 -1160,231 -1572,691 -411,462 -617,1066 -617,1812 0,754 195,1355 584,1801 390,447 910,671 1560,671 677,0 1213,-221 1608,-663 395,-442 592,-1058 592,-1847 0,-775 -193,-1378 -579,-1813 -386,-434 -911,-652 -1576,-652zm4042 3030l0 2197 -378 0 0 -5479 1322 0c562,0 992,131 1291,392 297,261 447,643 447,1145 0,508 -166,927 -499,1254 -331,328 -797,491 -1395,491l-788 0zm0 -2935l0 2588 780 0c494,0 870,-119 1126,-354 257,-236 387,-568 387,-999 0,-823 -473,-1235 -1418,-1235l-875 0zm3878 5132l0 -5479 2560 0 0 347 -2181 0 0 2198 2025 0 0 344 -2025 0 0 2246 2308 0 0 344 -2687 0z"/>
  </g>
  <g id="_1025467440">
   <sodipodi:namedview id="base" pagecolor="#ffffff" bordercolor="#666666" borderopacity="1.0" gridtolerance="10000" guidetolerance="10" objecttolerance="10" inkscape:pageopacity="0.0" inkscape:pageshadow="2" inkscape:zoom="1" inkscape:cx="375" inkscape:cy="170.84489" inkscape:document-units="px" inkscape:current-layer="layer1" showgrid="false" inkscape:window-width="1280" inkscape:window-height="750" inkscape:window-x="-8" inkscape:window-y="-8"/>
   <g id="layer1" inkscape:label="Layer 1" inkscape:groupmode="layer">
    <path id="path3397" class="fil1" d="M151847 0l-976 3002 -3163 0 2557 1857 -975 3011 2557 -1856 2557 1856 -975 -3011 2547 -1857 -3154 0 -975 -3002zm-13042 3495l-975 3012 -3163 0 2557 1856 -976 3002 2548 -1856 2557 1856 -975 -3002 2557 -1856 -3154 0 -976 -3012zm26083 0l-975 3012 -3163 0 2557 1856 -976 3002 2557 -1856 2557 1856 -975 -3002 2557 -1856 -3163 0 -976 -3012zm-35639 9556l-975 3002 -3154 0 2548 1857 -976 3002 2557 -1856 2558 1856 -976 -3002 2557 -1857 -3163 0 -976 -3002zm45186 0l-976 3002 -3153 0 2547 1847 -975 3012 2557 -1856 2557 1856 -975 -3002 2557 -1857 -3164 0 -975 -3002zm-48680 13041l-976 3003 -3154 0 2548 1856 -975 3002 2566 -1856 2548 1856 -976 -3002 2557 -1856 -3163 0 -975 -3003zm52175 0l-976 3003 -3154 0 2548 1856 -975 3002 2557 -1856 2557 1856 -976 -2993 2557 -1865 -3163 0 -975 -3003zm-48681 13042l-975 3002 -3154 0 2548 1856 -976 3012 2557 -1856 2558 1856 -976 -3012 2557 -1856 -3163 0 -976 -3002zm45186 0l-976 3002 -3153 0 2547 1856 -975 3012 2557 -1856 2557 1856 -975 -3012 2557 -1856 -3164 0 -975 -3002zm-35630 9546l-975 3012 -3163 0 2557 1856 -976 3003 2557 -1857 2548 1857 -975 -3003 2557 -1856 -3154 0 -976 -3012zm26083 0l-975 3012 -3163 0 2557 1847 -976 3012 2557 -1857 2557 1857 -975 -3012 2557 -1847 -3163 0 -976 -3012zm-13041 3495l-976 3012 -3163 0 2557 1847 -975 3012 2557 -1857 2557 1857 -975 -3012 2547 -1847 -3154 0 -975 -3012z"/>
   </g>
  </g>
 </g>
</svg>
