<?xml version="1.0" encoding="UTF-8"?>
<!DOCTYPE svg PUBLIC "-//W3C//DTD SVG 1.1//EN" "http://www.w3.org/Graphics/SVG/1.1/DTD/svg11.dtd">
<!-- Creator: CorelDRAW X7 -->
<svg xmlns="http://www.w3.org/2000/svg" xml:space="preserve" width="290.762in" height="31.4961in" version="1.1" style="shape-rendering:geometricPrecision; text-rendering:geometricPrecision; image-rendering:optimizeQuality; fill-rule:evenodd; clip-rule:evenodd"
viewBox="0 0 70809 7670"
 xmlns:xlink="http://www.w3.org/1999/xlink">
 <defs>
  <style type="text/css">
   <![CDATA[
    .fil1 {fill:#373435}
    .fil0 {fill:#373435;fill-rule:nonzero}
   ]]>
  </style>
 </defs>
 <g id="Layer_x0020_1">
  <metadata id="CorelCorpID_0Corel-Layer"/>
  <g id="_1022549664">
   <g>
    <path class="fil0" d="M25273 7543l-2509 0 -2396 -7416 2405 0 1134 4566c90,368 139,645 150,827l51 0c21,-232 76,-518 161,-859l1101 -4534 2329 0 -2426 7416zm3000 0l0 -7416 2236 0 0 7416 -2236 0zm7127 -5668l0 5668 -2246 0 0 -5668 -2077 0 0 -1748 6420 0 0 1748 -2097 0zm6263 5668l-327 -1367 -2214 0 -352 1367 -2415 0 2555 -7416 2774 0 2405 7416 -2426 0zm-1411 -5806l-51 0c-7,83 -30,219 -73,408 -40,191 -251,1005 -627,2442l1420 0 -517 -2016c-73,-297 -124,-576 -152,-834zm4282 5806l0 -7416 2235 0 0 5668 2553 0 0 1748 -4788 0z"/>
    <path class="fil0" d="M56283 5267c0,728 -255,1289 -765,1685 -510,393 -1239,591 -2188,591l-3383 0 0 -7416 3150 0c1969,0 2953,599 2953,1794 0,260 -62,496 -188,712 -123,215 -312,404 -566,566 -253,163 -532,272 -836,331l0 21c352,40 668,145 949,312 279,168 494,376 646,625 152,251 228,511 228,779zm-2607 -2959c0,-458 -360,-687 -1080,-687l-413 0 0 1398 646 0c247,0 452,-67 609,-199 159,-133 238,-302 238,-512zm234 2950c0,-213 -78,-390 -234,-528 -155,-137 -360,-206 -614,-206l-879 0 0 1515 745 0c302,0 542,-71 718,-210 175,-140 264,-331 264,-571zm10202 -1446c0,745 -161,1411 -481,1999 -321,588 -769,1045 -1345,1370 -576,327 -1220,489 -1935,489 -696,0 -1330,-157 -1900,-473 -570,-316 -1015,-759 -1333,-1330 -316,-570 -475,-1216 -475,-1937 0,-755 161,-1433 480,-2037 321,-604 772,-1070 1351,-1399 579,-330 1238,-494 1976,-494 710,0 1345,157 1905,473 561,316 994,767 1299,1351 306,584 458,1247 458,1988zm-2373 64c0,-609 -117,-1090 -352,-1441 -235,-351 -554,-528 -960,-528 -445,0 -791,169 -1038,507 -249,337 -373,814 -373,1432 0,602 124,1073 369,1410 247,338 581,507 1005,507 259,0 491,-76 697,-228 207,-151 367,-369 480,-651 115,-283 172,-618 172,-1008zm6443 3667l-920 -2034c-60,-127 -99,-253 -117,-376 -19,-122 -33,-223 -44,-302l-21 0c-20,83 -44,191 -72,327 -27,134 -68,264 -119,392l-858 1993 -2659 0 2225 -3697 -2024 -3719 2700 0 719 1957c65,183 127,423 182,723l21 0c54,-337 118,-582 190,-732l837 -1948 2488 0 -2085 3676 2184 3740 -2627 0z"/>
   </g>
   <polygon class="fil1" points="0,65 8649,65 8649,2292 2243,2292 2243,5222 8649,5222 8649,7467 0,7467 "/>
   <polygon class="fil1" points="17959,65 9310,65 9310,2292 15716,2292 15716,5222 9310,5222 9310,7467 17959,7467 "/>
  </g>
 </g>
</svg>
