<?xml version="1.0" encoding="UTF-8"?>
<!DOCTYPE svg PUBLIC "-//W3C//DTD SVG 1.1//EN" "http://www.w3.org/Graphics/SVG/1.1/DTD/svg11.dtd">
<!-- Creator: CorelDRAW X7 -->
<svg xmlns="http://www.w3.org/2000/svg" xml:space="preserve" width="68.0013in" height="68.0013in" version="1.1" style="shape-rendering:geometricPrecision; text-rendering:geometricPrecision; image-rendering:optimizeQuality; fill-rule:evenodd; clip-rule:evenodd"
viewBox="0 0 8133 8133"
 xmlns:xlink="http://www.w3.org/1999/xlink">
 <defs>
  <style type="text/css">
   <![CDATA[
    .fil1 {fill:none}
    .fil0 {fill:#848688;fill-rule:nonzero}
   ]]>
  </style>
 </defs>
 <g id="Layer_x0020_1">
  <metadata id="CorelCorpID_0Corel-Layer"/>
  <g id="_1127458288">
   <path class="fil0" d="M3641 4151l0 808 -250 0 0 -2137 587 0c229,0 406,55 532,167 125,111 188,268 188,471 0,202 -70,368 -210,497 -139,130 -328,194 -565,194l-282 0zm0 -1103l0 877 263 0c172,0 305,-40 395,-119 91,-78 137,-190 137,-334 0,-283 -167,-424 -501,-424l-294 0z"/>
   <path class="fil0" d="M3854 6136c-639,0 -1152,-211 -1540,-634 -385,-422 -578,-971 -578,-1648 0,-729 197,-1309 590,-1739 394,-433 930,-650 1604,-650 622,0 1124,211 1507,630 381,421 573,971 573,1649 0,737 -196,1320 -586,1750 -93,102 -192,190 -296,264l1269 910 -960 0 -851 -636c-223,69 -467,104 -732,104zm38 -4191c-475,0 -860,171 -1157,513 -295,343 -444,793 -444,1349 0,555 144,1003 431,1346 291,338 668,507 1132,507 496,0 887,-161 1173,-485 286,-324 428,-777 428,-1359 0,-599 -138,-1059 -415,-1383 -278,-326 -661,-488 -1148,-488z"/>
  </g>
  <rect class="fil1" width="8133" height="8133"/>
 </g>
</svg>
