<?xml version="1.0" encoding="UTF-8"?>
<!DOCTYPE svg PUBLIC "-//W3C//DTD SVG 1.1//EN" "http://www.w3.org/Graphics/SVG/1.1/DTD/svg11.dtd">
<!-- Creator: CorelDRAW X7 -->
<svg xmlns="http://www.w3.org/2000/svg" xml:space="preserve" width="68.0013in" height="68.0013in" version="1.1" style="shape-rendering:geometricPrecision; text-rendering:geometricPrecision; image-rendering:optimizeQuality; fill-rule:evenodd; clip-rule:evenodd"
viewBox="0 0 6237 6237"
 xmlns:xlink="http://www.w3.org/1999/xlink">
 <defs>
  <style type="text/css">
   <![CDATA[
    .fil1 {fill:none}
    .fil0 {fill:#848688}
   ]]>
  </style>
 </defs>
 <g id="Layer_x0020_1">
  <metadata id="CorelCorpID_0Corel-Layer"/>
  <g id="_1289211504">
   <path class="fil0" d="M3223 2200l0 -218c0,-316 183,-517 416,-605 88,-33 184,-50 278,-50 95,0 190,17 278,50 234,88 416,289 416,605l0 218c0,6 0,-1 0,16 -2,122 -25,233 -65,331 -5,0 -9,0 -13,0l-436 0c-6,-10 -13,-18 -21,-26l0 -1 0 0c-31,-31 -73,-48 -117,-48l-84 0c-44,0 -85,17 -116,48l0 0 0 0c-32,31 -49,73 -49,116 0,44 18,85 48,116l1 1 0 0c30,31 72,48 116,48l84 0c44,0 85,-17 116,-48l1 0 0 0c10,-11 19,-22 26,-35l351 0c-20,28 -41,53 -63,77 -130,141 -303,220 -476,220 -8,0 3,0 -11,0 -180,-4 -358,-95 -487,-250 -117,-142 -193,-336 -193,-565z"/>
   <path class="fil0" d="M4293 3167l-94 -40 -5 3c-14,11 -27,23 -42,37l-143 145 0 1 0 713 -89 89 -89 -89 0 -713 0 0 -148 -145c-14,-13 -28,-25 -42,-36l-6 -4 -94 39c-125,51 -243,80 -351,106 -125,31 -233,57 -307,118 29,-14 59,-24 90,-32 95,-25 195,-22 289,2 21,5 40,16 55,31 46,46 46,120 0,166l-266 267 135 135 266 -267c15,-14 32,-24 51,-29 63,-18 128,18 146,80 27,96 28,198 3,294 -25,96 -75,183 -145,254 -68,68 -152,117 -245,143 -71,19 -145,24 -217,16l-101 100 2177 0 -62 -923c-17,-255 -185,-296 -409,-351 -109,-27 -229,-56 -357,-110z"/>
   <path class="fil0" d="M3104 1895c-4,47 -45,83 -92,80 -47,-4 -83,-45 -79,-92 7,-101 31,-200 71,-293 40,-92 96,-175 165,-247 178,-188 426,-287 682,-301 142,-7 288,12 423,58 135,46 261,118 364,216 164,157 253,360 265,586 2,48 -34,88 -82,90 -47,3 -87,-34 -90,-81 -9,-182 -79,-345 -212,-471 -85,-81 -189,-140 -300,-178 -115,-39 -238,-55 -359,-49 -212,12 -419,93 -567,248 -55,58 -100,124 -132,197 -32,75 -51,156 -57,237z"/>
   <path class="fil0" d="M3015 1806l126 0c23,0 42,24 42,53l0 502c0,29 -19,53 -42,53l-162 0c-36,0 -69,-18 -93,-48 -24,-29 -39,-70 -39,-115l0 -237c0,-57 19,-109 49,-147 31,-37 73,-61 119,-61z"/>
   <path class="fil0" d="M4694 1806l125 0c46,0 88,24 119,61 30,38 49,90 49,147l0 237c0,45 -15,86 -38,115 -24,30 -57,48 -94,48l-161 0c-24,0 -43,-24 -43,-53l0 -502c0,-29 19,-53 43,-53z"/>
   <path class="fil0" d="M3875 2515l84 0c34,0 64,14 86,36l0 0 0 0 0 0c11,11 20,24 27,39l461 0c106,0 162,-17 189,-55 28,-41 32,-114 32,-221 0,-24 19,-43 43,-43 24,0 43,19 43,43 0,123 -6,209 -48,270 -45,64 -121,91 -259,91l-458 0c-7,18 -17,34 -30,47l0 0 0 0 0 1c-22,22 -52,35 -86,35l-84 0c-33,0 -64,-14 -86,-36l0 0 0 0 0 0c-22,-22 -36,-52 -36,-86l0 0c0,-33 14,-63 36,-85l0 0 0 0 0 -1c22,-22 53,-35 86,-35z"/>
   <path class="fil0" d="M1634 4195c0,61 24,115 64,155 39,39 94,64 154,64 60,0 115,-25 155,-64 39,-40 63,-94 63,-155 0,-60 -24,-114 -63,-154 -40,-39 -95,-64 -155,-64 -60,0 -115,25 -154,64 -40,40 -64,94 -64,154zm766 -145l65 11 -616 615c-64,65 -100,152 -100,243 0,2 0,3 0,5 -10,-7 -17,-19 -18,-32l-24 -149c-25,-6 -48,-14 -72,-24 -23,-10 -46,-21 -67,-34l-125 91c-18,12 -42,10 -56,-5l0 0 -111 -110c-16,-16 -17,-41 -3,-58l89 -123c-12,-22 -24,-44 -33,-68 -10,-23 -18,-47 -25,-72l-152 -24c-21,-3 -36,-22 -36,-43l0 0 0 -156c0,-22 17,-41 40,-43l148 -24c7,-24 15,-48 25,-71 9,-24 21,-47 33,-68l-90 -125c-13,-18 -10,-41 4,-56l0 0 111 -111c15,-15 40,-16 58,-3l123 89c21,-12 44,-23 67,-33 24,-10 47,-18 72,-24l25 -152c3,-22 21,-37 42,-37l0 0 156 0c23,0 42,18 43,40l24 149c25,6 49,14 72,24 24,10 46,21 68,33l125 -90c17,-13 41,-10 56,5l0 -1 110 111c16,16 17,41 3,58l-89 123c13,21 24,44 34,68 9,23 17,47 24,71l0 0z"/>
   <path class="fil0" d="M2657 4279l-603 603c-20,21 -20,54 0,75 21,20 54,20 74,0l604 -603c20,-21 20,-54 0,-75 -21,-20 -54,-20 -75,0zm-565 918c-71,0 -142,-27 -196,-81l-2 -1c-53,-54 -80,-125 -80,-196 0,-71 27,-142 81,-196l734 -735c-13,-73 -10,-149 10,-222 22,-79 64,-154 126,-216 64,-64 142,-107 224,-128 85,-22 174,-21 257,2 9,2 18,7 25,14 21,21 21,54 0,74l-312 313 227 227 312 -313c6,-6 14,-10 23,-13 28,-8 57,8 65,36 24,85 25,174 3,259 -21,83 -64,160 -128,225 -62,62 -137,104 -217,126 -72,20 -148,23 -222,9l-734 734c-54,55 -125,82 -196,82l0 0zm1406 -1458l0 0z"/>
  </g>
  <rect class="fil1" width="6237" height="6237"/>
 </g>
</svg>
