<?xml version="1.0" encoding="UTF-8"?>
<!DOCTYPE svg PUBLIC "-//W3C//DTD SVG 1.1//EN" "http://www.w3.org/Graphics/SVG/1.1/DTD/svg11.dtd">
<!-- Creator: CorelDRAW X7 -->
<svg xmlns="http://www.w3.org/2000/svg" xml:space="preserve" width="68.0013in" height="68.0013in" version="1.1" style="shape-rendering:geometricPrecision; text-rendering:geometricPrecision; image-rendering:optimizeQuality; fill-rule:evenodd; clip-rule:evenodd"
viewBox="0 0 20133 20133"
 xmlns:xlink="http://www.w3.org/1999/xlink">
 <defs>
  <style type="text/css">
   <![CDATA[
    .str0 {stroke:#646464;stroke-width:4.64723}
    .fil3 {fill:none}
    .fil1 {fill:none;fill-rule:nonzero}
    .fil2 {fill:#848688}
    .fil0 {fill:#848688;fill-rule:nonzero}
   ]]>
  </style>
 </defs>
 <g id="Layer_x0020_1">
  <metadata id="CorelCorpID_0Corel-Layer"/>
  <g id="_1139400560">
   <g>
    <path class="fil0" d="M12805 6167l-4028 0c-435,0 -802,291 -918,689l284 0c104,-247 349,-421 634,-421l3993 0 0 5016 -676 0 0 268 944 0 0 -5319c0,-129 -104,-233 -233,-233z"/>
   </g>
   <path class="fil0" d="M7249 11719l-392 0c-337,0 -611,511 -611,1141 0,630 274,1141 611,1141l392 0c337,0 611,-511 611,-1141 0,-630 -274,-1141 -611,-1141zm42 2019l0 0c-238,0 -431,-393 -431,-878 0,-485 193,-877 431,-877 238,0 431,392 431,877 0,485 -193,878 -431,878z"/>
   <path class="fil0" d="M10499 6196c0,0 -1978,40 -3993,345 -222,53 -618,3 -888,1154 -301,1280 -542,4499 -293,4749 249,249 339,271 1313,271 974,0 3058,0 3058,0 0,0 -149,-3801 803,-6519zm-1103 4607l0 0c-10,154 -143,278 -296,278l-3361 0c-153,0 -268,-124 -258,-278l33 -482c11,-153 143,-277 297,-277l3360 0c153,0 269,124 259,277l-34 482zm-3631 -1204l0 0c-109,3 -188,-91 -188,-182 2,-323 34,-1092 270,-1841 57,-181 209,-366 399,-366l663 -30c-538,490 -898,1078 -1062,1668 322,-696 993,-1347 1924,-1708l2292 -106c-205,589 -351,1546 -424,2497 0,0 -1756,4 -3874,68z"/>
   <path class="fil0" d="M9995 13444l-4666 -164c-189,-6 -339,-161 -339,-351l0 -575c0,-199 165,-358 364,-351l4666 164c189,7 339,162 339,351l0 575c0,199 -165,358 -364,351z"/>
   <path class="fil0" d="M10499 6196c-982,1929 -1006,7261 -1006,7261l1435 0c-29,-140 -45,-294 -45,-456 0,-630 238,-1141 531,-1141l340 0 0 0c294,0 531,511 531,1141 0,162 -16,316 -44,456l135 0 0 -6907 -1877 -354zm119 838l0 0 1061 76 0 2419 -1591 16c169,-1671 530,-2511 530,-2511zm1072 4304l0 0c0,0 -1116,33 -1312,1252 0,0 -60,-920 1006,-1362l306 -1184 0 1294z"/>
   <path class="fil0" d="M19501 7835l-6682 -1668 0 5552c4147,3 6646,-176 6646,-176 -40,-556 -14,-1453 36,-3708z"/>
   <g>
    <polygon class="fil0" points="14494,12564 14494,13217 15542,13110 15717,12935 16097,12935 16097,12564 "/>
    <path class="fil0" d="M14040 11884l-865 0c-311,0 -564,470 -564,1051 0,581 253,1052 564,1052l865 0c311,0 563,-471 563,-1052 0,-581 -252,-1051 -563,-1051zm0 1901l0 0c-237,0 -429,-380 -429,-850 0,-469 192,-850 429,-850 237,0 429,381 429,850 0,470 -192,850 -429,850z"/>
   </g>
   <path class="fil0" d="M18658 11937l-145 0c42,132 67,288 67,456 0,469 -192,850 -429,850 -237,0 -429,-381 -429,-850 0,-168 25,-324 67,-456l-145 0 -865 0c-36,138 -57,293 -57,456 0,581 253,1051 564,1051l865 0c311,0 563,-470 563,-1051 0,-163 -20,-318 -56,-456z"/>
   <polygon class="fil0" points="19465,11543 19465,12522 12285,13001 12285,11543 "/>
   <polygon class="fil0" points="11410,9093 11034,9150 11034,8255 11410,8342 "/>
   <polygon class="fil0" points="10883,9150 11034,9150 11034,8255 10883,8255 "/>
   <path class="fil0" d="M11235 8451c-37,0 -67,-30 -67,-67l0 -299c0,-10 -8,-19 -18,-19l-116 0c-37,0 -67,-29 -67,-67 0,-37 30,-67 67,-67l116 0c84,0 152,69 152,153l0 299c0,37 -30,67 -67,67z"/>
   <path class="fil0" d="M11674 12003l-392 0c-337,0 -611,511 -611,1141 0,630 274,1141 611,1141l392 0c338,0 611,-511 611,-1141 0,-630 -273,-1141 -611,-1141zm42 2018l0 0c-238,0 -431,-393 -431,-877 0,-485 193,-878 431,-878 238,0 431,393 431,878 0,484 -193,877 -431,877z"/>
   <g>
    <line class="fil1 str0" x1="8925" y1="10201" x2="5970" y2= "10201" />
    <line class="fil1 str0" x1="8884" y1="10435" x2="5929" y2= "10435" />
    <line class="fil1 str0" x1="8835" y1="10670" x2="5881" y2= "10670" />
    <line class="fil1 str0" x1="8814" y1="10905" x2="5860" y2= "10905" />
   </g>
   <path id="path3397" class="fil2" d="M8129 2617l-242 745 -784 0 634 461 -242 747 634 -461 635 461 -242 -747 632 -461 -782 0 -243 -745zm-3235 867l-242 748 -785 0 634 460 -242 745 632 -461 635 461 -242 -745 634 -460 -782 0 -242 -748zm6471 0l-242 748 -785 0 635 460 -242 745 634 -461 635 461 -242 -745 634 -460 -785 0 -242 -748zm-8842 2371l-242 745 -783 0 632 461 -242 745 635 -461 634 461 -242 -745 635 -461 -785 0 -242 -745zm-867 3236l-242 745 -783 0 632 461 -242 744 637 -460 632 460 -242 -744 635 -461 -785 0 -242 -745zm867 3236l-242 745 -783 0 632 460 -242 747 635 -460 634 460 -242 -747 635 -460 -785 0 -242 -745zm2371 2368l-242 748 -785 0 634 460 -242 745 635 -460 632 460 -242 -745 634 -460 -782 0 -242 -748zm6471 0l-242 748 -785 0 635 458 -242 747 634 -460 635 460 -242 -747 634 -458 -785 0 -242 -748zm-3236 867l-242 748 -784 0 634 458 -242 747 634 -460 635 460 -242 -747 632 -458 -782 0 -243 -748z"/>
  </g>
  <rect class="fil3" width="20133" height="20133"/>
 </g>
</svg>
